<?xml version="1.0" encoding="utf-8"?>
<!-- Generator: Adobe Illustrator 16.0.0, SVG Export Plug-In . SVG Version: 6.00 Build 0)  -->
<!DOCTYPE svg PUBLIC "-//W3C//DTD SVG 1.1//EN" "http://www.w3.org/Graphics/SVG/1.1/DTD/svg11.dtd">
<svg version="1.1" id="Layer_1" xmlns="http://www.w3.org/2000/svg" xmlns:xlink="http://www.w3.org/1999/xlink" x="0px" y="0px"
	 width="383.756px" height="64.291px" viewBox="169.06 371.734 383.756 64.291"
	 enable-background="new 169.06 371.734 383.756 64.291" xml:space="preserve">
<path fill="#F0ECE6" d="M281.766,388.8h-9.92c-0.794,0-1.19,0.396-1.19,1.189v19.049c0,10.318-3.572,15.477-11.112,15.477
	c-2.778,0-5.159-0.793-6.746-2.777c-1.588-1.984-2.382-4.365-2.382-7.539v-23.812c0-0.793-0.396-1.189-1.19-1.189h-9.921
	c-0.794,0-1.19,0.396-1.19,1.189v26.588c0,5.557,1.587,10.318,5.158,13.891c3.175,3.572,7.541,5.16,13.097,5.16
	c5.556,0,9.921-1.588,13.493-4.764c0.396-0.396,0.794,0,0.794,0.396v1.588c0,0.793,0.396,1.189,1.19,1.189h9.921
	c0.793,0,1.189-0.396,1.189-1.189v-43.654C282.956,389.197,282.561,388.8,281.766,388.8z M349.627,387.212
	c-7.143,0-12.699,2.381-16.667,7.541c-3.571-4.764-8.334-7.541-15.081-7.541c-5.158,0-9.523,1.586-12.699,4.365
	c-0.396,0.396-0.793,0-0.793-0.396v-1.588c0-0.793-0.396-1.189-1.191-1.189h-9.523c-0.793,0-1.189,0.396-1.189,1.189v43.258
	c0,0.793,0.396,1.189,1.189,1.189h9.922c0.793,0,1.19-0.396,1.19-1.189v-20.637c0-4.762,0.794-7.936,2.776-10.316
	c1.984-2.383,4.367-3.572,7.541-3.572c2.381,0,4.763,0.793,6.351,2.777c1.587,1.588,2.381,3.969,2.381,7.143v24.605
	c0,0.795,0.396,1.189,1.19,1.189h9.922c0.793,0,1.189-0.395,1.189-1.189v-20.637c0-4.762,0.793-7.936,2.777-10.316
	c1.984-2.383,4.365-3.572,7.541-3.572c2.381,0,4.762,0.793,6.35,2.777c1.588,1.588,2.381,3.969,2.381,7.143v24.605
	c0,0.795,0.396,1.189,1.19,1.189h9.524c0.793,0,1.189-0.395,1.189-1.189v-27.383c0-5.557-1.587-9.922-5.158-13.096
	C358.359,389.197,354.391,387.212,349.627,387.212z M407.568,423.326c-0.396-0.793-0.793-0.793-1.588-0.793
	c-2.381,1.189-4.364,1.588-6.35,1.588c-4.365,0-6.746-2.779-6.746-7.939v-16.666c0-0.795,0.396-1.191,1.19-1.191h12.698
	c0.795,0,1.19-0.396,1.19-1.189v-7.541c0-0.793-0.396-1.189-1.19-1.189h-12.698c-0.794,0-1.19-0.396-1.19-1.191v-11.508
	c0-0.793-0.396-1.191-1.189-1.191h-9.922c-0.795,0-1.19,0.398-1.19,1.191v11.508c0,0.795-0.396,1.191-1.19,1.191h-7.539
	c-0.795,0-1.191,0.396-1.191,1.189v7.541c0,0.793,0.396,1.189,1.191,1.189h7.539c0.795,0,1.19,0.396,1.19,1.191v17.857
	c0,5.953,1.588,10.715,4.762,13.494c3.177,3.174,7.541,4.365,13.097,4.365c3.572,0,7.145-0.793,11.112-2.777
	c0.396-0.398,0.794-0.795,0.396-1.191L407.568,423.326z M449.238,388.005c-0.793,0-1.19,0-2.381,0
	c-6.351,0-11.111,2.381-15.08,7.541c-0.397,0.396-0.794,0-0.794-0.396v-5.16c0-0.793-0.794-1.586-1.589-1.586h-9.127
	c-0.793,0-1.189,0.395-1.189,1.189v43.256c0,0.795,0.396,1.191,1.189,1.191h9.922c0.794,0,1.189-0.396,1.189-1.191v-13.492
	c0-13.096,5.557-19.445,16.271-19.445h1.587c0.396,0,1.19-0.396,1.19-1.191l0.396-9.523
	C450.429,388.8,450.031,388.404,449.238,388.005z M477.414,387.212c-6.746,0-12.302,2.381-16.668,6.746
	c-4.365,4.365-6.746,10.318-6.746,17.461c0,7.145,2.381,12.701,6.746,17.066c4.366,4.363,9.922,6.746,16.668,6.746
	c5.159,0,9.523-1.191,13.493-3.572c3.571-1.984,5.953-5.158,7.938-9.127c0.396-0.795,0-1.191-0.794-1.588l-8.729-1.984
	c-0.397,0-0.794,0-1.191,0.396c-2.381,3.572-5.952,5.557-10.715,5.557c-2.777,0-5.159-0.793-7.145-2.777
	c-1.982-1.588-3.175-3.969-3.968-7.145c0-0.396,0-0.793,0.396-0.793h33.731v-3.969c-0.396-6.746-2.776-12.303-7.144-16.668
	C488.923,389.593,483.764,387.212,477.414,387.212z M487.336,406.261h-20.24c-0.396,0-0.793-0.396-0.396-0.793
	c0.794-2.381,1.983-3.969,3.969-5.557c1.985-1.586,4.365-1.984,6.746-1.984s4.763,0.793,6.747,1.984
	c1.587,1.191,3.175,3.176,3.968,5.557C488.129,405.865,487.733,406.261,487.336,406.261z M519.084,414.595h33.732v-3.969
	c-0.396-6.746-2.778-12.303-7.145-16.668s-9.921-6.35-15.874-6.35c-6.746,0-12.303,2.381-16.668,6.748
	c-4.365,4.363-6.746,10.316-6.746,17.461c0,7.143,2.381,12.697,6.746,17.062s9.922,6.748,16.668,6.748
	c5.159,0,9.524-1.189,13.493-3.572c3.571-1.984,5.953-5.158,7.937-9.127c0.397-0.795,0-1.191-0.793-1.588l-8.729-1.984
	c-0.397,0-0.794,0-1.191,0.396c-2.381,3.572-5.952,5.557-10.715,5.557c-2.777,0-5.159-0.795-7.144-2.777
	c-1.984-1.588-3.175-3.969-3.969-7.145C518.29,414.992,518.688,414.595,519.084,414.595z M519.084,405.468
	c0.794-2.381,1.984-3.969,3.969-5.557c1.985-1.586,4.365-1.984,6.746-1.984s4.763,0.793,6.747,1.984
	c1.587,1.191,3.175,3.176,3.968,5.557c0,0.396,0,0.793-0.396,0.793h-20.239C519.084,406.261,518.688,405.865,519.084,405.468z
	 M229.779,398.324h-31.352c-0.794,0-1.19,0.396-1.19,1.191v9.127c0,0.793,0.396,1.189,1.19,1.189h19.843
	c0.396,0,0.793,0.398,0.396,0.795c-1.19,3.967-3.175,7.143-6.35,9.523c-3.175,2.381-7.144,3.57-11.905,3.57
	c-5.557,0-10.318-1.982-14.287-5.953c-3.969-3.969-5.953-8.729-5.953-14.285s1.984-10.318,5.557-14.287
	c3.571-3.971,8.73-5.953,14.286-5.953c7.144,0,12.699,2.777,16.668,7.936c0.397,0.398,0.794,0.398,1.588,0.398l8.334-5.557
	c0.396-0.396,0.793-1.189,0.396-1.588c-1.984-3.174-4.763-5.951-8.334-7.936c-5.159-3.176-11.509-4.762-17.858-4.762
	c-9.128,0-16.668,3.174-22.621,9.127c-6.35,5.953-9.127,13.492-9.127,22.621c0,9.127,3.175,16.668,9.524,22.621
	c6.35,5.951,13.89,9.127,23.018,9.127c9.127,0,16.271-3.176,22.224-9.127c5.953-5.953,8.73-13.494,8.73-22.621
	c0-1.191,0-2.779,0-4.365C230.969,399.119,230.572,398.324,229.779,398.324z"/>
</svg>
